<mxfile host="Electron" agent="Mozilla/5.0 (Windows NT 10.0; Win64; x64) AppleWebKit/537.36 (KHTML, like Gecko) draw.io/27.0.9 Chrome/134.0.6998.205 Electron/35.4.0 Safari/537.36" version="27.0.9">
  <diagram name="Halaman-1" id="H3kLTuz11nZFVVZxn5bS">
    <mxGraphModel dx="946" dy="710" grid="1" gridSize="10" guides="1" tooltips="1" connect="1" arrows="1" fold="1" page="1" pageScale="1" pageWidth="827" pageHeight="1169" math="0" shadow="0">
      <root>
        <mxCell id="0" />
        <mxCell id="1" parent="0" />
        <mxCell id="BajUrXFmIZBp0bTx__w6-1" value="Buat Akun" style="ellipse;whiteSpace=wrap;html=1;" parent="1" vertex="1">
          <mxGeometry x="374" y="68" width="80" height="50" as="geometry" />
        </mxCell>
        <mxCell id="BajUrXFmIZBp0bTx__w6-2" value="Pengguna" style="shape=umlActor;verticalLabelPosition=bottom;verticalAlign=top;html=1;outlineConnect=0;" parent="1" vertex="1">
          <mxGeometry x="74" y="138" width="30" height="60" as="geometry" />
        </mxCell>
        <mxCell id="BajUrXFmIZBp0bTx__w6-5" value="Admin" style="shape=umlActor;verticalLabelPosition=bottom;verticalAlign=top;html=1;outlineConnect=0;" parent="1" vertex="1">
          <mxGeometry x="724" y="128" width="30" height="60" as="geometry" />
        </mxCell>
        <mxCell id="BajUrXFmIZBp0bTx__w6-6" value="Login" style="ellipse;whiteSpace=wrap;html=1;" parent="1" vertex="1">
          <mxGeometry x="214" y="128" width="80" height="50" as="geometry" />
        </mxCell>
        <mxCell id="BajUrXFmIZBp0bTx__w6-7" value="Edit Postingan" style="ellipse;whiteSpace=wrap;html=1;" parent="1" vertex="1">
          <mxGeometry x="374" y="178" width="80" height="50" as="geometry" />
        </mxCell>
        <mxCell id="BajUrXFmIZBp0bTx__w6-8" value="Message" style="ellipse;whiteSpace=wrap;html=1;" parent="1" vertex="1">
          <mxGeometry x="374" y="238" width="80" height="50" as="geometry" />
        </mxCell>
        <mxCell id="BajUrXFmIZBp0bTx__w6-9" value="Join Comunnity" style="ellipse;whiteSpace=wrap;html=1;" parent="1" vertex="1">
          <mxGeometry x="374" y="298" width="80" height="50" as="geometry" />
        </mxCell>
        <mxCell id="BajUrXFmIZBp0bTx__w6-10" value="Bookmark Postingan" style="ellipse;whiteSpace=wrap;html=1;" parent="1" vertex="1">
          <mxGeometry x="374" y="358" width="80" height="50" as="geometry" />
        </mxCell>
        <mxCell id="BajUrXFmIZBp0bTx__w6-11" value="Setting" style="ellipse;whiteSpace=wrap;html=1;" parent="1" vertex="1">
          <mxGeometry x="374" y="418" width="80" height="50" as="geometry" />
        </mxCell>
        <mxCell id="BajUrXFmIZBp0bTx__w6-12" value="Cek Profil" style="ellipse;whiteSpace=wrap;html=1;" parent="1" vertex="1">
          <mxGeometry x="374" y="478" width="80" height="50" as="geometry" />
        </mxCell>
        <mxCell id="BajUrXFmIZBp0bTx__w6-13" value="Edit Profil" style="ellipse;whiteSpace=wrap;html=1;" parent="1" vertex="1">
          <mxGeometry x="374" y="538" width="80" height="50" as="geometry" />
        </mxCell>
        <mxCell id="BajUrXFmIZBp0bTx__w6-14" value="Hapus Postingan" style="ellipse;whiteSpace=wrap;html=1;" parent="1" vertex="1">
          <mxGeometry x="374" y="598" width="80" height="50" as="geometry" />
        </mxCell>
        <mxCell id="BajUrXFmIZBp0bTx__w6-25" value="" style="endArrow=none;html=1;rounded=0;entryX=0;entryY=0.5;entryDx=0;entryDy=0;exitX=1;exitY=0.3333333333333333;exitDx=0;exitDy=0;exitPerimeter=0;" parent="1" source="BajUrXFmIZBp0bTx__w6-2" target="BajUrXFmIZBp0bTx__w6-1" edge="1">
          <mxGeometry width="50" height="50" relative="1" as="geometry">
            <mxPoint x="104" y="168" as="sourcePoint" />
            <mxPoint x="154" y="118" as="targetPoint" />
          </mxGeometry>
        </mxCell>
        <mxCell id="BajUrXFmIZBp0bTx__w6-26" value="" style="endArrow=none;html=1;rounded=0;entryX=0;entryY=0.5;entryDx=0;entryDy=0;exitX=1;exitY=0.3333333333333333;exitDx=0;exitDy=0;exitPerimeter=0;" parent="1" source="BajUrXFmIZBp0bTx__w6-2" target="BajUrXFmIZBp0bTx__w6-6" edge="1">
          <mxGeometry width="50" height="50" relative="1" as="geometry">
            <mxPoint x="104" y="168" as="sourcePoint" />
            <mxPoint x="384" y="103" as="targetPoint" />
          </mxGeometry>
        </mxCell>
        <mxCell id="1M9QhqLZfWZT7avfSer1-28" value="" style="endArrow=none;html=1;rounded=0;entryX=1;entryY=0.5;entryDx=0;entryDy=0;exitX=0;exitY=0.3333333333333333;exitDx=0;exitDy=0;exitPerimeter=0;" parent="1" source="BajUrXFmIZBp0bTx__w6-5" target="BajUrXFmIZBp0bTx__w6-1" edge="1">
          <mxGeometry width="50" height="50" relative="1" as="geometry">
            <mxPoint x="724" y="168" as="sourcePoint" />
            <mxPoint x="614" y="843" as="targetPoint" />
          </mxGeometry>
        </mxCell>
        <mxCell id="1M9QhqLZfWZT7avfSer1-29" value="" style="endArrow=none;html=1;rounded=0;entryX=1;entryY=0.5;entryDx=0;entryDy=0;exitX=0;exitY=0.3333333333333333;exitDx=0;exitDy=0;exitPerimeter=0;" parent="1" source="BajUrXFmIZBp0bTx__w6-5" target="BajUrXFmIZBp0bTx__w6-6" edge="1">
          <mxGeometry width="50" height="50" relative="1" as="geometry">
            <mxPoint x="724" y="168" as="sourcePoint" />
            <mxPoint x="464" y="103" as="targetPoint" />
          </mxGeometry>
        </mxCell>
        <mxCell id="1M9QhqLZfWZT7avfSer1-30" value="" style="endArrow=none;html=1;rounded=0;entryX=1;entryY=1;entryDx=0;entryDy=0;exitX=0;exitY=0.3333333333333333;exitDx=0;exitDy=0;exitPerimeter=0;" parent="1" source="BajUrXFmIZBp0bTx__w6-5" target="BajUrXFmIZBp0bTx__w6-7" edge="1">
          <mxGeometry width="50" height="50" relative="1" as="geometry">
            <mxPoint x="724" y="168" as="sourcePoint" />
            <mxPoint x="364" y="163" as="targetPoint" />
          </mxGeometry>
        </mxCell>
        <mxCell id="1M9QhqLZfWZT7avfSer1-31" value="" style="endArrow=none;html=1;rounded=0;entryX=1;entryY=0.5;entryDx=0;entryDy=0;exitX=0;exitY=0.3333333333333333;exitDx=0;exitDy=0;exitPerimeter=0;" parent="1" source="BajUrXFmIZBp0bTx__w6-5" target="BajUrXFmIZBp0bTx__w6-8" edge="1">
          <mxGeometry width="50" height="50" relative="1" as="geometry">
            <mxPoint x="724" y="168" as="sourcePoint" />
            <mxPoint x="464" y="213" as="targetPoint" />
          </mxGeometry>
        </mxCell>
        <mxCell id="1M9QhqLZfWZT7avfSer1-39" value="" style="endArrow=none;dashed=1;html=1;rounded=0;entryX=0.5;entryY=1;entryDx=0;entryDy=0;exitX=0;exitY=0.5;exitDx=0;exitDy=0;" parent="1" source="BajUrXFmIZBp0bTx__w6-12" target="BajUrXFmIZBp0bTx__w6-6" edge="1">
          <mxGeometry width="50" height="50" relative="1" as="geometry">
            <mxPoint x="224" y="778" as="sourcePoint" />
            <mxPoint x="274" y="728" as="targetPoint" />
          </mxGeometry>
        </mxCell>
        <mxCell id="1M9QhqLZfWZT7avfSer1-40" value="" style="endArrow=none;dashed=1;html=1;rounded=0;entryX=0.5;entryY=1;entryDx=0;entryDy=0;exitX=0;exitY=0.5;exitDx=0;exitDy=0;" parent="1" source="BajUrXFmIZBp0bTx__w6-7" target="BajUrXFmIZBp0bTx__w6-6" edge="1">
          <mxGeometry width="50" height="50" relative="1" as="geometry">
            <mxPoint x="384" y="513" as="sourcePoint" />
            <mxPoint x="324" y="188" as="targetPoint" />
          </mxGeometry>
        </mxCell>
        <mxCell id="1M9QhqLZfWZT7avfSer1-41" value="" style="endArrow=none;dashed=1;html=1;rounded=0;exitX=0;exitY=0.5;exitDx=0;exitDy=0;entryX=0.5;entryY=1;entryDx=0;entryDy=0;" parent="1" source="BajUrXFmIZBp0bTx__w6-8" target="BajUrXFmIZBp0bTx__w6-6" edge="1">
          <mxGeometry width="50" height="50" relative="1" as="geometry">
            <mxPoint x="394" y="523" as="sourcePoint" />
            <mxPoint x="314" y="178" as="targetPoint" />
          </mxGeometry>
        </mxCell>
        <mxCell id="1M9QhqLZfWZT7avfSer1-42" value="" style="endArrow=none;dashed=1;html=1;rounded=0;exitX=0;exitY=0.5;exitDx=0;exitDy=0;entryX=0.5;entryY=1;entryDx=0;entryDy=0;" parent="1" source="BajUrXFmIZBp0bTx__w6-9" target="BajUrXFmIZBp0bTx__w6-6" edge="1">
          <mxGeometry width="50" height="50" relative="1" as="geometry">
            <mxPoint x="404" y="533" as="sourcePoint" />
            <mxPoint x="314" y="178" as="targetPoint" />
          </mxGeometry>
        </mxCell>
        <mxCell id="1M9QhqLZfWZT7avfSer1-43" value="" style="endArrow=none;dashed=1;html=1;rounded=0;exitX=0;exitY=0.5;exitDx=0;exitDy=0;entryX=0.5;entryY=1;entryDx=0;entryDy=0;" parent="1" source="BajUrXFmIZBp0bTx__w6-11" target="BajUrXFmIZBp0bTx__w6-6" edge="1">
          <mxGeometry width="50" height="50" relative="1" as="geometry">
            <mxPoint x="414" y="543" as="sourcePoint" />
            <mxPoint x="314" y="178" as="targetPoint" />
          </mxGeometry>
        </mxCell>
        <mxCell id="1M9QhqLZfWZT7avfSer1-44" value="" style="endArrow=none;dashed=1;html=1;rounded=0;entryX=0.5;entryY=1;entryDx=0;entryDy=0;" parent="1" target="BajUrXFmIZBp0bTx__w6-6" edge="1">
          <mxGeometry width="50" height="50" relative="1" as="geometry">
            <mxPoint x="374" y="378" as="sourcePoint" />
            <mxPoint x="364" y="228" as="targetPoint" />
          </mxGeometry>
        </mxCell>
        <mxCell id="1M9QhqLZfWZT7avfSer1-45" value="" style="endArrow=none;dashed=1;html=1;rounded=0;exitX=0;exitY=0.5;exitDx=0;exitDy=0;entryX=0.5;entryY=1;entryDx=0;entryDy=0;" parent="1" source="BajUrXFmIZBp0bTx__w6-13" target="BajUrXFmIZBp0bTx__w6-6" edge="1">
          <mxGeometry width="50" height="50" relative="1" as="geometry">
            <mxPoint x="434" y="563" as="sourcePoint" />
            <mxPoint x="314" y="178" as="targetPoint" />
          </mxGeometry>
        </mxCell>
        <mxCell id="1M9QhqLZfWZT7avfSer1-46" value="" style="endArrow=none;dashed=1;html=1;rounded=0;entryX=0.5;entryY=1;entryDx=0;entryDy=0;exitX=0;exitY=0.5;exitDx=0;exitDy=0;" parent="1" source="BajUrXFmIZBp0bTx__w6-14" target="BajUrXFmIZBp0bTx__w6-6" edge="1">
          <mxGeometry width="50" height="50" relative="1" as="geometry">
            <mxPoint x="374" y="618" as="sourcePoint" />
            <mxPoint x="384" y="248" as="targetPoint" />
          </mxGeometry>
        </mxCell>
        <mxCell id="1M9QhqLZfWZT7avfSer1-56" value="Buat Postingan" style="ellipse;whiteSpace=wrap;html=1;" parent="1" vertex="1">
          <mxGeometry x="554" y="60" width="80" height="50" as="geometry" />
        </mxCell>
        <mxCell id="1M9QhqLZfWZT7avfSer1-57" value="Ban Pengguna" style="ellipse;whiteSpace=wrap;html=1;" parent="1" vertex="1">
          <mxGeometry x="444" y="108" width="70" height="40" as="geometry" />
        </mxCell>
        <mxCell id="1M9QhqLZfWZT7avfSer1-58" value="Lihat Postingan" style="ellipse;whiteSpace=wrap;html=1;" parent="1" vertex="1">
          <mxGeometry x="454" y="162" width="71" height="40" as="geometry" />
        </mxCell>
        <mxCell id="1M9QhqLZfWZT7avfSer1-59" value="" style="endArrow=none;html=1;rounded=0;entryX=1;entryY=0.5;entryDx=0;entryDy=0;exitX=0;exitY=0.3333333333333333;exitDx=0;exitDy=0;exitPerimeter=0;" parent="1" source="BajUrXFmIZBp0bTx__w6-5" target="1M9QhqLZfWZT7avfSer1-56" edge="1">
          <mxGeometry width="50" height="50" relative="1" as="geometry">
            <mxPoint x="724" y="168" as="sourcePoint" />
            <mxPoint x="464" y="393" as="targetPoint" />
          </mxGeometry>
        </mxCell>
        <mxCell id="1M9QhqLZfWZT7avfSer1-60" value="" style="endArrow=none;html=1;rounded=0;entryX=1;entryY=0.5;entryDx=0;entryDy=0;exitX=0;exitY=0.3333333333333333;exitDx=0;exitDy=0;exitPerimeter=0;" parent="1" source="BajUrXFmIZBp0bTx__w6-5" target="1M9QhqLZfWZT7avfSer1-57" edge="1">
          <mxGeometry width="50" height="50" relative="1" as="geometry">
            <mxPoint x="724" y="168" as="sourcePoint" />
            <mxPoint x="604" y="373" as="targetPoint" />
          </mxGeometry>
        </mxCell>
        <mxCell id="1M9QhqLZfWZT7avfSer1-61" value="" style="endArrow=none;html=1;rounded=0;entryX=1;entryY=0.5;entryDx=0;entryDy=0;exitX=0;exitY=0.3333333333333333;exitDx=0;exitDy=0;exitPerimeter=0;" parent="1" source="BajUrXFmIZBp0bTx__w6-5" target="1M9QhqLZfWZT7avfSer1-58" edge="1">
          <mxGeometry width="50" height="50" relative="1" as="geometry">
            <mxPoint x="724" y="168" as="sourcePoint" />
            <mxPoint x="614" y="383" as="targetPoint" />
          </mxGeometry>
        </mxCell>
        <mxCell id="1M9QhqLZfWZT7avfSer1-62" value="" style="endArrow=none;dashed=1;html=1;rounded=0;entryX=0.5;entryY=1;entryDx=0;entryDy=0;exitX=0.5;exitY=0;exitDx=0;exitDy=0;" parent="1" source="1M9QhqLZfWZT7avfSer1-68" target="1M9QhqLZfWZT7avfSer1-56" edge="1">
          <mxGeometry width="50" height="50" relative="1" as="geometry">
            <mxPoint x="694" y="428" as="sourcePoint" />
            <mxPoint x="644" y="423" as="targetPoint" />
          </mxGeometry>
        </mxCell>
        <mxCell id="1M9QhqLZfWZT7avfSer1-63" value="" style="endArrow=none;dashed=1;html=1;rounded=0;entryX=1;entryY=0.5;entryDx=0;entryDy=0;exitX=0.5;exitY=0;exitDx=0;exitDy=0;" parent="1" source="1M9QhqLZfWZT7avfSer1-69" target="1M9QhqLZfWZT7avfSer1-57" edge="1">
          <mxGeometry width="50" height="50" relative="1" as="geometry">
            <mxPoint x="724" y="568" as="sourcePoint" />
            <mxPoint x="604" y="373" as="targetPoint" />
          </mxGeometry>
        </mxCell>
        <mxCell id="1M9QhqLZfWZT7avfSer1-64" value="" style="endArrow=none;dashed=1;html=1;rounded=0;entryX=0.5;entryY=1;entryDx=0;entryDy=0;exitX=0.5;exitY=0;exitDx=0;exitDy=0;" parent="1" source="1M9QhqLZfWZT7avfSer1-70" target="1M9QhqLZfWZT7avfSer1-58" edge="1">
          <mxGeometry width="50" height="50" relative="1" as="geometry">
            <mxPoint x="674" y="668" as="sourcePoint" />
            <mxPoint x="614" y="383" as="targetPoint" />
          </mxGeometry>
        </mxCell>
        <mxCell id="1M9QhqLZfWZT7avfSer1-65" value="" style="endArrow=none;dashed=1;html=1;rounded=0;entryX=1;entryY=0.5;entryDx=0;entryDy=0;exitX=0;exitY=0.5;exitDx=0;exitDy=0;" parent="1" source="1M9QhqLZfWZT7avfSer1-58" target="BajUrXFmIZBp0bTx__w6-6" edge="1">
          <mxGeometry width="50" height="50" relative="1" as="geometry">
            <mxPoint x="639" y="323" as="sourcePoint" />
            <mxPoint x="469" y="238" as="targetPoint" />
            <Array as="points">
              <mxPoint x="394" y="168" />
            </Array>
          </mxGeometry>
        </mxCell>
        <mxCell id="1M9QhqLZfWZT7avfSer1-67" value="" style="endArrow=none;dashed=1;html=1;rounded=0;entryX=1;entryY=0.5;entryDx=0;entryDy=0;exitX=0;exitY=0.5;exitDx=0;exitDy=0;" parent="1" source="1M9QhqLZfWZT7avfSer1-56" target="BajUrXFmIZBp0bTx__w6-6" edge="1">
          <mxGeometry width="50" height="50" relative="1" as="geometry">
            <mxPoint x="524" y="433" as="sourcePoint" />
            <mxPoint x="304" y="163" as="targetPoint" />
            <Array as="points" />
          </mxGeometry>
        </mxCell>
        <mxCell id="1M9QhqLZfWZT7avfSer1-68" value="Hapus Postingan" style="ellipse;whiteSpace=wrap;html=1;" parent="1" vertex="1">
          <mxGeometry x="584" y="278" width="80" height="50" as="geometry" />
        </mxCell>
        <mxCell id="1M9QhqLZfWZT7avfSer1-69" value="Hapus Pengguna" style="ellipse;whiteSpace=wrap;html=1;" parent="1" vertex="1">
          <mxGeometry x="534.5" y="338" width="80" height="50" as="geometry" />
        </mxCell>
        <mxCell id="1M9QhqLZfWZT7avfSer1-70" value="Komentar" style="ellipse;whiteSpace=wrap;html=1;" parent="1" vertex="1">
          <mxGeometry x="464" y="378" width="80" height="50" as="geometry" />
        </mxCell>
        <mxCell id="1M9QhqLZfWZT7avfSer1-72" value="&amp;lt;&amp;lt;extend&amp;gt;&amp;gt;" style="text;html=1;align=center;verticalAlign=middle;resizable=0;points=[];autosize=1;strokeColor=none;fillColor=none;" parent="1" vertex="1">
          <mxGeometry x="554" y="143" width="90" height="30" as="geometry" />
        </mxCell>
        <mxCell id="1M9QhqLZfWZT7avfSer1-73" value="&amp;lt;&amp;lt;extend&amp;gt;&amp;gt;" style="text;html=1;align=center;verticalAlign=middle;resizable=0;points=[];autosize=1;strokeColor=none;fillColor=none;" parent="1" vertex="1">
          <mxGeometry x="504" y="228" width="90" height="30" as="geometry" />
        </mxCell>
        <mxCell id="1M9QhqLZfWZT7avfSer1-74" value="&amp;lt;&amp;lt;extend&amp;gt;&amp;gt;" style="text;html=1;align=center;verticalAlign=middle;resizable=0;points=[];autosize=1;strokeColor=none;fillColor=none;" parent="1" vertex="1">
          <mxGeometry x="444.5" y="308" width="90" height="30" as="geometry" />
        </mxCell>
        <mxCell id="1M9QhqLZfWZT7avfSer1-84" value="&amp;lt;&amp;lt;include&amp;gt;&amp;gt;" style="text;html=1;align=center;verticalAlign=middle;resizable=0;points=[];autosize=1;strokeColor=none;fillColor=none;" parent="1" vertex="1">
          <mxGeometry x="334" y="578" width="90" height="30" as="geometry" />
        </mxCell>
        <mxCell id="1M9QhqLZfWZT7avfSer1-85" value="&amp;lt;&amp;lt;include&amp;gt;&amp;gt;" style="text;html=1;align=center;verticalAlign=middle;resizable=0;points=[];autosize=1;strokeColor=none;fillColor=none;" parent="1" vertex="1">
          <mxGeometry x="334" y="518" width="90" height="30" as="geometry" />
        </mxCell>
        <mxCell id="1M9QhqLZfWZT7avfSer1-86" value="&amp;lt;&amp;lt;include&amp;gt;&amp;gt;" style="text;html=1;align=center;verticalAlign=middle;resizable=0;points=[];autosize=1;strokeColor=none;fillColor=none;" parent="1" vertex="1">
          <mxGeometry x="334" y="458" width="90" height="30" as="geometry" />
        </mxCell>
        <mxCell id="1M9QhqLZfWZT7avfSer1-87" value="&amp;lt;&amp;lt;include&amp;gt;&amp;gt;" style="text;html=1;align=center;verticalAlign=middle;resizable=0;points=[];autosize=1;strokeColor=none;fillColor=none;" parent="1" vertex="1">
          <mxGeometry x="334" y="398" width="90" height="30" as="geometry" />
        </mxCell>
        <mxCell id="1M9QhqLZfWZT7avfSer1-88" value="&amp;lt;&amp;lt;include&amp;gt;&amp;gt;" style="text;html=1;align=center;verticalAlign=middle;resizable=0;points=[];autosize=1;strokeColor=none;fillColor=none;" parent="1" vertex="1">
          <mxGeometry x="334" y="338" width="90" height="30" as="geometry" />
        </mxCell>
        <mxCell id="1M9QhqLZfWZT7avfSer1-89" value="&amp;lt;&amp;lt;include&amp;gt;&amp;gt;" style="text;html=1;align=center;verticalAlign=middle;resizable=0;points=[];autosize=1;strokeColor=none;fillColor=none;" parent="1" vertex="1">
          <mxGeometry x="334" y="278" width="90" height="30" as="geometry" />
        </mxCell>
        <mxCell id="1M9QhqLZfWZT7avfSer1-90" value="&amp;lt;&amp;lt;include&amp;gt;&amp;gt;" style="text;html=1;align=center;verticalAlign=middle;resizable=0;points=[];autosize=1;strokeColor=none;fillColor=none;" parent="1" vertex="1">
          <mxGeometry x="304" y="228" width="90" height="30" as="geometry" />
        </mxCell>
        <mxCell id="1M9QhqLZfWZT7avfSer1-91" value="&amp;lt;&amp;lt;include&amp;gt;&amp;gt;" style="text;html=1;align=center;verticalAlign=middle;resizable=0;points=[];autosize=1;strokeColor=none;fillColor=none;" parent="1" vertex="1">
          <mxGeometry x="284" y="178" width="90" height="30" as="geometry" />
        </mxCell>
        <mxCell id="1M9QhqLZfWZT7avfSer1-92" value="&amp;lt;&amp;lt;include&amp;gt;&amp;gt;" style="text;html=1;align=center;verticalAlign=middle;resizable=0;points=[];autosize=1;strokeColor=none;fillColor=none;" parent="1" vertex="1">
          <mxGeometry x="364" y="153" width="90" height="30" as="geometry" />
        </mxCell>
        <mxCell id="1M9QhqLZfWZT7avfSer1-94" value="&amp;lt;&amp;lt;include&amp;gt;&amp;gt;" style="text;html=1;align=center;verticalAlign=middle;resizable=0;points=[];autosize=1;strokeColor=none;fillColor=none;" parent="1" vertex="1">
          <mxGeometry x="464" y="78" width="90" height="30" as="geometry" />
        </mxCell>
        <mxCell id="ukE9hRQ9-9jcYfQ2pZ0n-2" value="" style="endArrow=none;html=1;rounded=0;entryX=1;entryY=0.5;entryDx=0;entryDy=0;" edge="1" parent="1" target="BajUrXFmIZBp0bTx__w6-11">
          <mxGeometry width="50" height="50" relative="1" as="geometry">
            <mxPoint x="720" y="150" as="sourcePoint" />
            <mxPoint x="710" y="310" as="targetPoint" />
          </mxGeometry>
        </mxCell>
      </root>
    </mxGraphModel>
  </diagram>
</mxfile>
